<?xml version="1.0" encoding="UTF-8" standalone="no"?>
<!DOCTYPE svg PUBLIC "-//W3C//DTD SVG 1.1//EN" "http://www.w3.org/Graphics/SVG/1.1/DTD/svg11.dtd">
<svg width="100%" height="100%" viewBox="0 0 64 64" version="1.1" xmlns="http://www.w3.org/2000/svg" xmlns:xlink="http://www.w3.org/1999/xlink" xml:space="preserve" xmlns:serif="http://www.serif.com/" style="fill-rule:evenodd;clip-rule:evenodd;stroke-linejoin:round;stroke-miterlimit:2;">
    <g transform="matrix(0.0304699,0.0179317,-0.0188953,0.0321072,21.9528,12.6736)">
        <g transform="matrix(45.0519,0,0,40.9681,-302.719,-261.738)">
            <ellipse cx="13.693" cy="10.431" rx="5.023" ry="5.242"/>
        </g>
        <g transform="matrix(0.840395,0,0,0.840395,170.818,46.3513)">
            <path d="M62.15,1.45L0.26,131.45C-0.222,132.44 -0.002,133.636 0.8,134.39L167.95,294.56C168.931,295.5 170.499,295.5 171.48,294.56L338.63,134.4C339.432,133.646 339.652,132.45 339.17,131.46L277.28,1.46C276.873,0.57 275.979,-0.003 275,0L64.45,0C63.466,-0.012 62.563,0.557 62.15,1.45Z"/>
        </g>
        <g transform="matrix(0.840395,0,0,0.840395,170.818,46.3513)">
            <path d="M191.19,144.8C189.99,144.89 183.79,145.26 169.96,145.26C158.96,145.26 151.15,144.93 148.41,144.8C105.9,142.93 74.17,135.53 74.17,126.67C74.17,117.81 105.9,110.42 148.41,108.52L148.41,137.43C151.19,137.63 159.15,138.1 170.15,138.1C183.35,138.1 189.96,137.55 191.15,137.44L191.15,108.54C233.57,110.43 265.23,117.83 265.23,126.67C265.23,135.51 233.58,142.91 191.15,144.79L191.19,144.8ZM191.19,105.55L191.19,79.68L250.39,79.68L250.39,40.23L89.21,40.23L89.21,79.68L148.4,79.68L148.4,105.54C100.29,107.75 64.11,117.28 64.11,128.7C64.11,140.12 100.29,149.64 148.4,151.86L148.4,234.76L191.18,234.76L191.18,151.83C239.18,149.62 275.3,140.1 275.3,128.69C275.3,117.28 239.21,107.76 191.18,105.54L191.19,105.55Z"/>
        </g>
    </g>
    <g>
        <g transform="matrix(0.00751863,0.00273318,-0.00273318,0.00751863,37.7042,18.235)">
            <path d="M1000,2000C1554.17,2000 2000,1554.17 2000,1000C2000,445.83 1554.17,0 1000,0C445.83,0 0,445.83 0,1000C0,1554.17 445.83,2000 1000,2000Z" style="fill-rule:nonzero;"/>
        </g>
        <g transform="matrix(0.00751863,0.00273318,-0.00273318,0.00751863,37.7042,18.235)">
            <path d="M1275,1158.33C1275,1012.5 1187.5,962.5 1012.5,941.67C887.5,925 862.5,891.67 862.5,833.33C862.5,774.99 904.17,737.5 987.5,737.5C1062.5,737.5 1104.17,762.5 1125,825C1129.17,837.5 1141.67,845.83 1154.17,845.83L1220.83,845.83C1237.5,845.83 1250,833.33 1250,816.67L1250,812.5C1233.33,720.83 1158.33,650 1062.5,641.67L1062.5,541.67C1062.5,525 1050,512.5 1029.17,508.33L966.67,508.33C950,508.33 937.5,520.83 933.33,541.67L933.33,637.5C808.33,654.17 729.17,737.5 729.17,841.67C729.17,979.17 812.5,1033.33 987.5,1054.17C1104.17,1075 1141.67,1100 1141.67,1166.67C1141.67,1233.34 1083.33,1279.17 1004.17,1279.17C895.83,1279.17 858.33,1233.33 845.83,1170.83C841.67,1154.17 829.17,1145.83 816.67,1145.83L745.83,1145.83C729.17,1145.83 716.67,1158.33 716.67,1175L716.67,1179.17C733.33,1283.33 800,1358.33 937.5,1379.17L937.5,1479.17C937.5,1495.83 950,1508.33 970.83,1512.5L1033.33,1512.5C1050,1512.5 1062.5,1500 1066.67,1479.17L1066.67,1379.17C1191.67,1358.33 1275,1270.83 1275,1158.33Z" style="fill-rule:nonzero;"/>
        </g>
        <g transform="matrix(0.00751863,0.00273318,-0.00273318,0.00751863,37.7042,18.235)">
            <path d="M787.5,1595.83C462.5,1479.17 295.83,1116.67 416.67,795.83C479.17,620.83 616.67,487.5 787.5,425C804.17,416.67 812.5,404.17 812.5,383.33L812.5,325C812.5,308.33 804.17,295.83 787.5,291.67C783.33,291.67 775,291.67 770.83,295.83C375,420.83 158.33,841.67 283.33,1237.5C358.33,1470.83 537.5,1650 770.83,1725C787.5,1733.33 804.17,1725 808.33,1708.33C812.5,1704.17 812.5,1700 812.5,1691.67L812.5,1633.33C812.5,1620.83 800,1604.17 787.5,1595.83ZM1229.17,295.83C1212.5,287.5 1195.83,295.83 1191.67,312.5C1187.5,316.67 1187.5,320.83 1187.5,329.17L1187.5,387.5C1187.5,404.17 1200,420.83 1212.5,429.17C1537.5,545.83 1704.17,908.33 1583.33,1229.17C1520.83,1404.17 1383.33,1537.5 1212.5,1600C1195.83,1608.33 1187.5,1620.83 1187.5,1641.67L1187.5,1700C1187.5,1716.67 1195.83,1729.17 1212.5,1733.33C1216.67,1733.33 1225,1733.33 1229.17,1729.17C1625,1604.17 1841.67,1183.33 1716.67,787.5C1641.67,550 1458.33,370.83 1229.17,295.83Z" style="fill-rule:nonzero;"/>
        </g>
    </g>
    <g id="_1421344023328" transform="matrix(0.00364903,0.00140666,-0.00140651,0.00364862,30.8584,16.6012)">
        <path d="M4030.06,2540.77C3756.82,3636.78 2646.74,4303.79 1550.6,4030.48C454.92,3757.24 -212.09,2647.09 61.27,1551.17C334.39,455.04 1444.47,-212.02 2540.27,61.22C3636.33,334.46 4303.3,1444.73 4030.03,2540.79L4030.05,2540.77L4030.06,2540.77Z" style="fill-rule:nonzero;"/>
        <path d="M2947.77,1754.38C2988.49,1482.12 2781.21,1335.77 2497.77,1238.14L2589.72,869.34L2365.22,813.4L2275.71,1172.49C2216.69,1157.77 2156.08,1143.9 2095.84,1130.15L2186,768.69L1961.64,712.75L1869.64,1081.43C1820.8,1070.31 1772.83,1059.32 1726.29,1047.74L1726.55,1046.58L1416.96,969.27L1357.24,1209.05C1357.24,1209.05 1523.8,1247.23 1520.29,1249.58C1611.2,1272.27 1627.64,1332.45 1624.91,1380.15L1520.17,1800.3C1526.43,1801.89 1534.55,1804.19 1543.51,1807.79C1536.02,1805.93 1528.05,1803.9 1519.78,1801.92L1372.97,2390.49C1361.86,2418.11 1333.66,2459.56 1270.1,2443.82C1272.35,2447.08 1106.93,2403.1 1106.93,2403.1L995.47,2660.08L1287.62,2732.91C1341.97,2746.54 1395.23,2760.8 1447.68,2774.21L1354.78,3147.24L1579.02,3203.18L1671.02,2834.11C1732.28,2850.74 1791.73,2866.08 1849.93,2880.54L1758.24,3247.87L1982.75,3303.81L2075.64,2931.48C2458.46,3003.93 2746.31,2974.72 2867.47,2628.46C2965.1,2349.68 2862.61,2188.88 2661.21,2084.02C2807.9,2050.19 2918.39,1953.71 2947.85,1754.41L2947.78,1754.36L2947.77,1754.38ZM2434.84,2473.64C2365.46,2752.42 1896.08,2601.72 1743.9,2563.93L1867.18,2069.73C2019.35,2107.72 2507.35,2182.9 2434.85,2473.64L2434.84,2473.64ZM2504.27,1750.34C2440.98,2003.92 2050.31,1875.09 1923.58,1843.5L2035.35,1395.29C2162.08,1426.88 2570.2,1485.84 2504.29,1750.34L2504.27,1750.34Z" style="fill-rule:nonzero;"/>
    </g>
    <g transform="matrix(0.0407494,-0.0269498,0.0269498,0.0407494,-11.6089,34.4805)">
        <g transform="matrix(28.4609,0,0,28.4609,-180.43,-46.6648)">
            <circle cx="28.329" cy="11.592" r="5.754"/>
        </g>
        <g transform="matrix(0.417986,0,0,0.417986,561.168,166.6)">
            <path d="M163.7,197.2L163.7,0L0,271.6L163.7,197.2Z" style="fill-rule:nonzero;"/>
        </g>
        <g transform="matrix(0.417986,0,0,0.417986,561.168,166.6)">
            <path d="M163.7,368.4L163.7,197.2L0,271.6L163.7,368.4ZM163.7,197.2L327.4,271.6L163.7,0L163.7,197.2Z" style="fill-rule:nonzero;"/>
        </g>
        <g transform="matrix(0.417986,0,0,0.417986,561.168,166.6)">
            <path d="M163.7,197.2L163.7,368.4L327.4,271.6L163.7,197.2Z" style="fill-rule:nonzero;"/>
        </g>
        <g transform="matrix(0.417986,0,0,0.417986,561.168,166.6)">
            <path d="M163.7,399.4L0,302.7L163.7,533.4L163.7,399.4Z" style="fill-rule:nonzero;"/>
        </g>
        <g transform="matrix(0.417986,0,0,0.417986,561.168,166.6)">
            <path d="M327.5,302.7L163.7,399.4L163.7,533.4L327.5,302.7Z" style="fill-rule:nonzero;"/>
        </g>
    </g>
    <path d="M49.63,34L49.36,35L46.08,47L45.81,48L18.19,48L17.92,47L14.64,35L14.37,34L49.63,34Z" style="fill-rule:nonzero;"/>
    <path d="M52,31C54.58,31 54.58,35 52,35L12,35C9.42,35 9.42,31 12,31L52,31Z" style="fill-rule:nonzero;"/>
    <path d="M52,49L52,52C52,53.1 51.1,54 50,54L14,54C12.9,54 12,53.1 12,52L12,49C12,47.9 12.9,47 14,47L50,47C51.1,47 52,47.9 52,49Z" style="fill-rule:nonzero;"/>
    <path d="M20.41,50C22.59,50 24.41,51.82 24.41,54C24.41,56.18 22.59,58 20.41,58C18.23,58 16.41,56.18 16.41,54C16.41,51.82 18.23,50 20.41,50Z" style="fill-rule:nonzero;"/>
    <path d="M43.59,50C45.77,50 47.59,51.82 47.59,54C47.59,56.18 45.77,58 43.59,58C41.41,58 39.59,56.18 39.59,54C39.59,51.82 41.41,50 43.59,50Z" style="fill-rule:nonzero;"/>
</svg>
